# xmcd CD database file
#
# Track frame offsets:
#	182
#	25755
#	54997
#	67255
#	88780
#	113807
#	133975
#	149170
#	179792
#	192415
#	208770
#	242940
#
# Disc length: 3375 seconds
#
# Revision: 0
# Processed by: cddbd v1.5.2PL0 Copyright (c) Steve Scherf et al.
# Submitted via: CDex 1.79
#
DISCID=c70d2d0c
DTITLE=Visions - Oneness and Variety
DYEAR=1994
DGENRE=New Age
TTITLE0=Ow when again
TTITLE1=Hari Haraya
TTITLE2=Cascada
TTITLE3=My love in a foreign land
TTITLE4=Durge
TTITLE5=Samsara
TTITLE6=Echoes
TTITLE7=Bhajahure Mana
TTITLE8=Longing
TTITLE9=Tanguita
TTITLE10=Hari Om Namah Shivaya
TTITLE11=Mullah
EXTD=YEAR: 1994
EXTT0=
EXTT1=
EXTT2=
EXTT3=
EXTT4=
EXTT5=
EXTT6=
EXTT7=
EXTT8=
EXTT9=
EXTT10=
EXTT11=
PLAYORDER=
